<?xml version="1.0" encoding="UTF-8"?>
<svg width="400" height="300" viewBox="0 0 400 300" fill="none" xmlns="http://www.w3.org/2000/svg">
  <!-- Desk -->
  <rect x="50" y="200" width="300" height="10" fill="#E5E7EB"/>
  
  <!-- Computer -->
  <rect x="100" y="120" width="160" height="100" rx="4" fill="#F3F4F6"/>
  <rect x="110" y="130" width="140" height="80" fill="#ffffff"/>
  
  <!-- Plant -->
  <rect x="300" y="150" width="30" height="40" rx="2" fill="#047857"/>
  <path d="M300 140 Q315 120 330 140" stroke="#047857" stroke-width="4"/>
  <path d="M305 135 Q315 115 325 135" stroke="#047857" stroke-width="3"/>
  
  <!-- Person -->
  <circle cx="200" cy="100" r="20" fill="#F87171"/>
  <path d="M180 140 Q200 180 220 140" fill="#F87171"/>
  <rect x="185" y="140" width="30" height="40" rx="4" fill="#DC2626"/>
  
  <!-- Calendar -->
  <rect x="50" y="50" width="60" height="70" rx="4" fill="#ffffff"/>
  <rect x="55" y="55" width="50" height="15" fill="#DC2626"/>
  <line x1="60" y1="80" x2="100" y2="80" stroke="#E5E7EB" stroke-width="2"/>
  <line x1="60" y1="90" x2="100" y2="90" stroke="#E5E7EB" stroke-width="2"/>
  <line x1="60" y1="100" x2="100" y2="100" stroke="#E5E7EB" stroke-width="2"/>
</svg> 